<?xml version="1.0" encoding="utf-8"?>
<!-- Generator: Adobe Illustrator 23.0.1, SVG Export Plug-In . SVG Version: 6.00 Build 0)  -->
<svg version="1.1" id="Layer_1" xmlns="http://www.w3.org/2000/svg" xmlns:xlink="http://www.w3.org/1999/xlink" x="0px" y="0px"
	 viewBox="0 0 434.3 435" style="enable-background:new 0 0 434.3 435;" xml:space="preserve">
<style type="text/css">
	.st0{fill:#9D9D9C;}
</style>
<path class="st0" d="M427,392.2L300.8,265.3c20.2-27.5,32.1-61.5,32.1-98.1c0-91.8-74.7-166.4-166.4-166.4S0,75.4,0,167.2
	s74.7,166.4,166.4,166.4c37.1,0,71.4-12.2,99.1-32.8c0,0,116.6,117.2,126.1,126.7c9.5,9.5,25.1,10.3,35.3,0.1
	C436.7,417.8,436.8,402,427,392.2z M46.9,167.2c0-65.9,53.6-119.6,119.6-119.6S286,101.3,286,167.2s-53.6,119.6-119.6,119.6
	S46.9,233.1,46.9,167.2z"/>
</svg>
